# Blender v2.83.2 OBJ File: 'codingtrainmodel.blend'
# www.blender.org
mtllib mewchoo.mtl
o Body_Plane
v 24.977650 -181.496536 65.178909
v 81.604179 -142.773560 66.944794
v -3.469315 -8.183455 12.176638
v 84.241928 -102.229584 62.797295
v -3.564858 -201.119202 2.466501
v 57.757103 -68.113091 64.599983
v -3.469315 -8.183455 12.176638
v 39.100163 -35.930080 66.280060
v -3.564858 -201.119202 2.466501
v 27.314137 -14.473094 67.398087
v 104.857063 -158.153854 4.278479
v 40.165112 -187.230728 -51.722485
v 100.300011 -109.377243 6.748133
v 98.217506 -148.313812 -53.742065
v 31.692322 -193.492645 7.371853
v 94.203529 -105.350174 -51.566734
v 70.231796 -70.644821 8.794727
v 67.718704 -71.233665 -49.764042
v 49.050591 -34.107468 10.702161
v 49.061768 -39.050652 -48.083965
v 35.669926 -9.747367 11.971456
v 37.275742 -17.593666 -46.965939
v -13.896569 -180.618546 65.348755
v 1.711607 -151.245926 55.961601
v 0.639342 -111.634598 57.958702
v 1.852105 -78.854225 59.604618
v -1.411747 -47.003273 61.218224
v 1.716010 -21.718914 62.480675
v -14.237527 -175.309723 -40.131622
v 1.370649 -145.937134 -49.518780
v 0.298384 -106.325790 -47.521679
v 1.511148 -73.545403 -45.875763
v -1.752705 -41.694450 -44.262157
v 1.375052 -16.410091 -42.999706
v 1.711607 -151.245926 55.961601
v 0.639342 -111.634598 57.958702
v 1.852108 -78.854225 59.604618
v -1.411746 -47.003273 61.218224
v 1.716011 -21.718914 62.480675
v 1.370649 -145.937134 -49.518780
v 0.298384 -106.325790 -47.521679
v 1.511150 -73.545403 -45.875763
v -1.752704 -41.694450 -44.262157
v 1.375054 -16.410091 -42.999706
v -13.896569 -180.618546 65.348755
v -14.237527 -175.309723 -40.131622
v 118.974617 98.739182 103.043892
v 86.252586 167.227615 74.873871
v 130.941345 59.023796 99.831100
v 131.045120 27.713940 107.654663
v 110.533295 -1.328760 107.434052
v 71.710960 -9.414449 91.877716
v 62.884178 190.554733 34.999092
v 118.223450 110.436424 -129.341156
v 85.643387 174.457062 -115.436966
v 130.243423 74.406166 -112.393814
v 130.414368 40.921398 -84.705223
v 109.931656 27.224913 -63.003662
v 71.208229 5.185263 -58.112949
v 62.478554 193.485519 -93.254494
v 11.864152 92.536919 103.077911
v 10.414765 161.104721 74.810844
v 13.532016 55.562889 100.036430
v 13.635778 24.253035 107.859993
v 12.507727 0.794596 107.857826
v 23.179697 -12.305161 91.889099
v 12.318235 186.887131 36.110275
v 11.112982 104.234154 -129.307083
v 9.805561 168.334167 -115.500031
v 12.834082 70.945259 -112.188484
v 13.005039 37.460514 -84.499893
v 16.663910 26.197464 -62.753853
v 22.676966 2.294562 -58.101562
v 15.099921 190.422089 -91.098305
v 65.419395 95.638046 103.060921
v 72.236702 57.293354 99.933762
v 72.340462 25.983488 107.757332
v 63.899414 -1.842483 107.558937
v 47.445332 -10.859807 91.883453
v 64.668228 107.335289 -129.324127
v 71.538765 72.675720 -112.291100
v 71.709724 39.190956 -84.602554
v 63.297783 26.711187 -62.878738
v 46.942596 3.739915 -58.107216
v 48.333679 164.166153 74.842407
v 45.743488 189.325150 34.992653
v 47.724476 171.395615 -115.468475
v 45.337864 192.255890 -93.261009
v 62.623936 211.535217 -31.670208
v 130.527390 75.626945 -19.932379
v 130.600845 44.789043 -21.484859
v 85.935921 176.672882 -19.400501
v 118.581985 104.853294 -18.422672
v 110.099182 9.945283 -23.172491
v 71.337273 -3.595347 -23.728785
v 22.806005 -6.486048 -23.717400
v 0.271875 204.745300 -29.418095
v 17.412558 205.974884 -29.411617
v 47.071636 -5.040695 -23.723047
v -23.650747 -181.619980 65.329887
v -80.461060 -143.184937 67.447952
v 3.586382 -8.165546 12.154732
v -83.330299 -102.654922 63.317551
v 4.601058 -201.098480 2.441149
v -57.008324 -68.404396 64.956291
v 3.586382 -8.165546 12.154732
v -38.504929 -36.127064 66.520996
v 4.601058 -201.098480 2.441149
v -26.821266 -14.610504 67.566162
v -104.024246 -158.684036 4.926988
v -39.534485 -187.433029 -51.475044
v -99.699615 -109.884903 7.369067
v -97.795120 -148.811340 -53.133511
v -30.663246 -193.650909 7.565447
v -93.985870 -105.827850 -50.982464
v -69.816277 -71.000305 9.229531
v -67.663879 -71.577309 -49.343723
v -48.809380 -34.355865 11.005984
v -49.160480 -39.299965 -47.779015
v -35.544930 -9.928129 12.192554
v -37.476826 -17.783409 -46.733856
v 15.218819 -180.544632 65.258362
v -0.596251 -151.251785 55.968765
v 0.287295 -111.635498 57.959797
v -1.081618 -78.861671 59.613724
v 2.030460 -46.994537 61.207539
v -1.217713 -21.726360 62.489784
v 14.877861 -175.235809 -40.222015
v -0.937209 -145.942993 -49.511616
v -0.053662 -106.326691 -47.520584
v -1.422575 -73.552849 -45.866653
v 1.689502 -41.685715 -44.272842
v -1.558671 -16.417538 -42.990597
v -0.596251 -151.251785 55.968765
v 0.287295 -111.635498 57.959797
v -1.081620 -78.861671 59.613724
v 2.030458 -46.994537 61.207539
v -1.217715 -21.726360 62.489784
v -0.937209 -145.942993 -49.511616
v -0.053662 -106.326691 -47.520584
v -1.422578 -73.552849 -45.866653
v 1.689500 -41.685715 -44.272842
v -1.558672 -16.417538 -42.990597
v 15.218819 -180.544632 65.258362
v 14.877861 -175.235809 -40.222015
v -118.832191 98.135559 103.782204
v -86.633797 166.788773 75.410629
v -130.616882 58.359894 100.643150
v -130.513107 27.050037 108.466721
v -109.855873 -1.888167 108.118286
v -71.090340 -9.776917 92.321068
v -63.632145 190.233597 35.391884
v -119.583366 109.832802 -128.602844
v -87.242996 174.018219 -114.900208
v -131.314804 73.742256 -111.581757
v -131.143860 40.257496 -83.893166
v -110.457512 26.665506 -62.319427
v -71.593071 4.822795 -57.669598
v -64.037766 193.164383 -92.861702
v -11.693467 92.477119 103.151047
v -10.767722 161.050949 74.876610
v -13.192466 55.495056 100.119400
v -13.088703 24.185202 107.942963
v -11.841616 0.732791 107.933426
v -22.545895 -12.421225 92.031059
v -13.042317 186.822769 36.189011
v -12.444637 104.174355 -129.233948
v -11.376926 168.280396 -115.434265
v -13.890400 70.877419 -112.105515
v -13.719442 37.392681 -84.416916
v -17.185987 26.111546 -62.648758
v -23.048626 2.178498 -57.959602
v -16.631729 190.341553 -90.999786
v -65.262833 95.306335 103.466652
v -71.904663 56.927486 100.381271
v -71.800903 25.617620 108.204842
v -63.220116 -2.165146 107.953598
v -46.818108 -11.099072 92.176109
v -66.014000 107.003578 -128.918396
v -72.602600 72.309845 -111.843590
v -72.431641 38.825089 -84.155045
v -63.821747 26.388525 -62.484074
v -47.320843 3.500649 -57.814556
v -48.700760 163.919846 75.143661
v -46.485813 189.091049 35.278999
v -49.309963 171.149307 -115.167213
v -46.891438 192.021790 -92.974670
v -63.892387 211.214081 -31.277416
v -131.030838 74.963036 -19.120325
v -130.957382 44.125141 -20.672806
v -86.950462 176.234039 -18.863747
v -119.224831 104.249672 -17.684361
v -110.289986 9.385877 -22.488255
v -71.464027 -3.957815 -23.285433
v -22.919586 -6.602112 -23.575436
v -1.493882 204.740814 -29.412613
v -18.640215 205.883362 -29.299685
v -47.191803 -5.279960 -23.430389
vt 0.500000 0.000000
vt 0.500000 1.000000
vt 1.000000 1.000000
vt 1.000000 0.000000
vt 0.500000 1.000000
vt 1.000000 1.000000
vt 0.500000 1.000000
vt 1.000000 1.000000
vt 0.500000 1.000000
vt 1.000000 1.000000
vt 0.500000 1.000000
vt 1.000000 1.000000
vt 0.500000 0.000000
vt 1.000000 0.000000
vt 1.000000 1.000000
vt 0.500000 1.000000
vt 1.000000 1.000000
vt 0.500000 1.000000
vt 1.000000 1.000000
vt 0.500000 1.000000
vt 1.000000 1.000000
vt 0.500000 1.000000
vt 1.000000 1.000000
vt 0.500000 1.000000
vt 0.500000 0.000000
vt 0.500000 0.000000
vt 0.500000 0.000000
vt 1.000000 0.000000
vt 1.000000 1.000000
vt 1.000000 1.000000
vt 1.000000 1.000000
vt 1.000000 1.000000
vt 1.000000 1.000000
vt 0.500000 0.000000
vt 0.500000 1.000000
vt 0.500711 1.000000
vt 0.500000 1.000000
vt 0.340519 1.000000
vt 0.500000 1.000000
vt 0.500000 1.000000
vt 0.500711 1.000000
vt 0.500000 1.000000
vt 0.510683 1.000000
vt 0.500000 1.000000
vt 0.500000 1.000000
vt 0.250000 0.500000
vt 0.750000 0.000000
vt 0.750000 1.000000
vt 1.000000 1.000000
vt 1.000000 0.000000
vt 0.750000 1.000000
vt 1.000000 1.000000
vt 0.750000 0.000000
vt 1.000000 0.000000
vt 1.000000 1.000000
vt 0.750000 1.000000
vt 1.000000 1.000000
vt 0.750000 1.000000
vt 1.000000 0.000000
vt 1.000000 0.000000
vt 1.000000 0.000000
vt 1.000000 0.000000
vt 1.000000 0.000000
vt 1.000000 1.000000
vt 1.000000 1.000000
vt 1.000000 0.000000
vt 1.000000 0.000000
vt 0.750000 0.000000
vt 1.000000 0.000000
vt 1.000000 0.000000
vt 0.750000 0.000000
vt 0.750000 1.000000
vt 0.500000 1.000000
vt 0.500000 1.000000
vt 0.750000 0.000000
vt 0.500000 0.000000
vt 0.500000 0.000000
vt 0.750000 0.000000
vt 0.500000 0.000000
vt 0.750000 0.000000
vt 0.500000 0.000000
vt 0.500000 0.000000
vt 0.750000 0.000000
vt 0.750000 0.000000
vt 0.500000 0.000000
vt 0.500000 0.000000
vt 0.750000 0.000000
vt 0.500000 0.000000
vt 0.750000 0.000000
vt 0.500000 0.000000
vt 0.500000 0.000000
vt 1.000000 0.000000
vt 1.000000 0.000000
vt 1.000000 0.000000
vt 1.000000 0.000000
vt 0.500000 0.000000
vt 0.500000 1.000000
vt 0.500000 1.000000
vt 0.500000 1.000000
vt 0.500000 0.000000
vt 1.000000 0.000000
vt 1.000000 1.000000
vt 0.500000 1.000000
vt 1.000000 1.000000
vt 0.500000 1.000000
vt 1.000000 1.000000
vt 0.500000 1.000000
vt 1.000000 1.000000
vt 0.500000 1.000000
vt 1.000000 1.000000
vt 0.500000 1.000000
vt 0.500000 0.000000
vt 0.500000 1.000000
vt 1.000000 1.000000
vt 1.000000 0.000000
vt 0.500000 1.000000
vt 1.000000 1.000000
vt 0.500000 1.000000
vt 1.000000 1.000000
vt 0.500000 1.000000
vt 1.000000 1.000000
vt 0.500000 1.000000
vt 1.000000 1.000000
vt 0.500000 0.000000
vt 0.500000 0.000000
vt 0.500000 0.000000
vt 1.000000 0.000000
vt 1.000000 1.000000
vt 1.000000 1.000000
vt 1.000000 1.000000
vt 1.000000 1.000000
vt 1.000000 1.000000
vt 0.500000 0.000000
vt 0.500000 1.000000
vt 0.500711 1.000000
vt 0.500000 1.000000
vt 0.340519 1.000000
vt 0.500000 1.000000
vt 0.500000 1.000000
vt 0.500711 1.000000
vt 0.500000 1.000000
vt 0.510683 1.000000
vt 0.500000 1.000000
vt 0.500000 1.000000
vt 0.250000 0.500000
vt 0.750000 0.000000
vt 1.000000 0.000000
vt 1.000000 1.000000
vt 0.750000 1.000000
vt 1.000000 1.000000
vt 0.750000 1.000000
vt 0.750000 0.000000
vt 0.750000 1.000000
vt 1.000000 1.000000
vt 1.000000 0.000000
vt 0.750000 1.000000
vt 1.000000 1.000000
vt 1.000000 0.000000
vt 1.000000 0.000000
vt 1.000000 0.000000
vt 1.000000 0.000000
vt 1.000000 0.000000
vt 1.000000 1.000000
vt 1.000000 1.000000
vt 1.000000 0.000000
vt 1.000000 0.000000
vt 0.750000 0.000000
vt 0.750000 0.000000
vt 1.000000 0.000000
vt 1.000000 0.000000
vt 0.750000 1.000000
vt 0.500000 1.000000
vt 0.500000 1.000000
vt 0.750000 0.000000
vt 0.500000 0.000000
vt 0.500000 0.000000
vt 0.750000 0.000000
vt 0.500000 0.000000
vt 0.750000 0.000000
vt 0.500000 0.000000
vt 0.500000 0.000000
vt 0.750000 0.000000
vt 0.500000 0.000000
vt 0.500000 0.000000
vt 0.750000 0.000000
vt 0.750000 0.000000
vt 0.500000 0.000000
vt 0.750000 0.000000
vt 0.500000 0.000000
vt 0.500000 0.000000
vt 1.000000 0.000000
vt 1.000000 0.000000
vt 1.000000 0.000000
vt 1.000000 0.000000
vt 0.500000 0.000000
vt 0.500000 1.000000
vt 0.500000 1.000000
vt 0.500000 1.000000
vn 0.1023 -0.2171 -0.9708
vn 0.0994 -0.0286 -0.9946
vn 0.0595 0.0738 -0.9955
vn 0.0854 0.0803 -0.9931
vn 0.1287 0.0742 -0.9889
vn 0.1084 0.0489 0.9929
vn 0.0429 -0.0478 0.9979
vn 0.0501 -0.0325 0.9982
vn 0.0669 -0.0284 0.9974
vn 0.0900 -0.0340 0.9954
vn 0.0000 0.0000 1.0000
vn -0.0703 0.9607 -0.2686
vn -0.8749 -0.4827 0.0404
vn -0.8634 -0.5027 0.0421
vn 0.0679 0.9519 0.2987
vn -0.7883 -0.6140 0.0400
vn -0.8565 -0.4877 -0.1693
vn -0.9905 -0.0974 0.0968
vn -0.4861 0.8667 0.1116
vn -0.0286 -0.9900 0.1378
vn 0.0000 0.0518 -0.9987
vn 0.0000 0.0608 -0.9982
vn 0.0000 0.0491 -0.9988
vn 0.0000 -0.0541 0.9985
vn 0.0000 -0.0418 0.9991
vn 0.0000 -0.0562 0.9984
vn -0.8674 -0.4675 -0.1706
vn -0.7850 -0.6015 -0.1482
vn -0.9505 -0.0262 -0.3098
vn -0.4743 0.8256 -0.3056
vn 0.0982 -0.9811 -0.1665
vn 0.0000 0.9701 0.2425
vn 0.0000 0.9975 -0.0710
vn 0.0252 -0.3726 -0.9277
vn 0.0661 -0.8428 -0.5341
vn 0.0138 -0.2067 0.9783
vn 0.0561 -0.7264 0.6850
vn -1.0000 -0.0025 0.0031
vn -0.9016 -0.4325 -0.0042
vn -0.7465 -0.6597 0.0869
vn -0.7427 0.6637 0.0889
vn -0.0576 0.9672 0.2472
vn -0.9383 -0.3457 -0.0044
vn -0.3828 0.8712 0.3074
vn 0.0735 -0.9677 0.2412
vn -0.0037 0.1979 0.9802
vn -0.0177 0.8783 0.4778
vn -0.0174 0.6371 0.7706
vn -0.0183 0.4472 0.8943
vn 0.0106 0.8187 -0.5741
vn -0.0036 0.0046 -1.0000
vn 0.0054 -0.2424 -0.9702
vn -0.0046 0.0811 -0.9967
vn -0.0045 0.0799 -0.9968
vn -0.0023 0.0086 -1.0000
vn -0.0256 0.8952 -0.4450
vn -0.0175 0.4294 0.9030
vn -0.0173 0.8613 0.5077
vn -0.0041 0.2147 0.9767
vn 0.1139 -0.9568 0.2675
vn 0.0739 -0.7357 0.6733
vn 0.0139 -0.2091 0.9778
vn 0.0563 -0.8375 -0.5436
vn 0.0256 -0.3779 -0.9255
vn -0.0594 0.9970 0.0504
vn 0.0930 -0.9514 -0.2934
vn 0.0636 -0.9595 -0.2746
vn -0.2809 0.9574 0.0674
vn -0.9450 -0.3259 -0.0275
vn -0.8408 0.5379 0.0616
vn -0.7148 -0.6876 -0.1274
vn -0.9039 -0.4269 -0.0278
vn -0.1072 -0.2177 -0.9701
vn -0.1054 -0.0291 -0.9940
vn -0.0661 0.0735 -0.9951
vn -0.0920 0.0799 -0.9926
vn -0.1352 0.0735 -0.9881
vn -0.1025 0.0483 0.9936
vn -0.0365 -0.0480 0.9982
vn -0.0438 -0.0328 0.9985
vn -0.0606 -0.0287 0.9978
vn -0.0836 -0.0345 0.9959
vn 0.0638 0.9610 -0.2690
vn 0.8775 -0.4782 0.0350
vn 0.8662 -0.4983 0.0367
vn -0.0708 0.9516 0.2992
vn 0.7916 -0.6100 0.0351
vn 0.8579 -0.4833 -0.1747
vn 0.9916 -0.0924 0.0907
vn 0.4824 0.8692 0.1085
vn 0.0345 -0.9899 0.1376
vn 0.0000 0.0480 -0.9988
vn 0.0000 0.0544 -0.9985
vn 0.0000 0.0351 -0.9994
vn 0.0000 -0.0491 0.9988
vn 0.0000 -0.0467 0.9989
vn 0.0000 -0.0524 0.9986
vn 0.8686 -0.4631 -0.1760
vn 0.7871 -0.5976 -0.1531
vn 0.9486 -0.0214 -0.3156
vn 0.4682 0.8280 -0.3085
vn -0.0943 -0.9816 -0.1659
vn 0.0000 0.9806 0.1961
vn 0.0000 0.9806 -0.1961
vn -0.0291 -0.3727 -0.9275
vn -0.0651 -0.8432 -0.5337
vn -0.0066 -0.2068 0.9784
vn -0.0482 -0.7266 0.6853
vn 1.0000 0.0025 -0.0031
vn 0.9038 -0.4279 -0.0098
vn 0.7503 -0.6559 0.0823
vn 0.7398 0.6675 0.0843
vn 0.0542 0.9675 0.2469
vn 0.9400 -0.3409 -0.0103
vn 0.3803 0.8731 0.3051
vn -0.0671 -0.9680 0.2417
vn 0.0087 0.1979 0.9802
vn 0.0162 0.8784 0.4777
vn 0.0190 0.6372 0.7705
vn 0.0216 0.4473 0.8941
vn -0.0183 0.8186 -0.5741
vn -0.0026 0.0046 -1.0000
vn -0.0102 -0.2424 -0.9701
vn -0.0020 0.0811 -0.9967
vn -0.0021 0.0799 -0.9968
vn -0.0039 0.0086 -1.0000
vn 0.0182 0.8953 -0.4451
vn 0.0209 0.4295 0.9028
vn 0.0160 0.8614 0.5076
vn 0.0091 0.2147 0.9766
vn -0.1073 -0.9574 0.2682
vn -0.0660 -0.7360 0.6737
vn -0.0068 -0.2091 0.9779
vn -0.0554 -0.8377 -0.5433
vn -0.0294 -0.3780 -0.9253
vn 0.0546 0.9973 0.0500
vn -0.0900 -0.9519 -0.2929
vn -0.0604 -0.9598 -0.2742
vn 0.2764 0.9588 0.0657
vn 0.9465 -0.3211 -0.0334
vn 0.8384 0.5422 0.0563
vn 0.7175 -0.6840 -0.1319
vn 0.9058 -0.4223 -0.0334
usemtl None
s off
f 23/1/1 24/2/1 2/3/1 1/4/1
f 24/2/2 25/5/2 4/6/2 2/3/2
f 25/5/3 26/7/3 6/8/3 4/6/3
f 26/7/4 27/9/4 8/10/4 6/8/4
f 27/9/5 28/11/5 10/12/5 8/10/5
f 29/13/6 12/14/6 14/15/6 30/16/6
f 30/16/7 14/15/7 16/17/7 31/18/7
f 31/18/8 16/17/8 18/19/8 32/20/8
f 32/20/9 18/19/9 20/21/9 33/22/9
f 33/22/10 20/21/10 22/23/10 34/24/10
f 45/25/11 23/1/11 9/26/11 5/27/11
f 23/1/12 1/4/12 15/28/12 9/26/12
f 19/29/13 21/30/13 22/23/13 20/21/13
f 17/31/14 19/29/14 20/21/14 18/19/14
f 9/26/15 15/28/15 12/14/15 29/13/15
f 13/32/16 17/31/16 18/19/16 16/17/16
f 6/8/17 8/10/17 19/29/17 17/31/17
f 11/33/18 13/32/18 16/17/18 14/15/18
f 15/28/19 11/33/19 14/15/19 12/14/19
f 5/27/11 9/26/11 29/13/11 46/34/11
f 21/30/20 7/35/20 34/24/20 22/23/20
f 43/36/21 33/22/21 34/24/21 44/37/21
f 42/38/22 32/20/22 33/22/22 43/36/22
f 41/39/23 31/18/23 32/20/23 42/38/23
f 40/40/11 30/16/11 31/18/11 41/39/11
f 46/34/11 29/13/11 30/16/11 40/40/11
f 38/41/24 39/42/24 28/11/24 27/9/24
f 37/43/25 38/41/25 27/9/25 26/7/25
f 36/44/26 37/43/26 26/7/26 25/5/26
f 35/45/11 36/44/11 25/5/11 24/2/11
f 45/25/11 35/45/11 24/2/11 23/1/11
f 8/10/27 10/12/27 21/30/27 19/29/27
f 4/6/28 6/8/28 17/31/28 13/32/28
f 2/3/29 4/6/29 13/32/29 11/33/29
f 1/4/30 2/3/30 11/33/30 15/28/30
f 10/12/31 28/11/31 7/35/31 21/30/31
f 28/11/32 39/42/32 3/46/32 7/35/32
f 7/35/33 3/46/33 44/37/33 34/24/33
f 75/47/34 85/48/34 48/49/34 47/50/34
f 85/48/35 86/51/35 53/52/35 48/49/35
f 80/53/36 54/54/36 55/55/36 87/56/36
f 87/56/37 55/55/37 60/57/37 88/58/37
f 91/59/38 90/60/38 56/61/38 57/62/38
f 93/63/39 92/64/39 55/55/39 54/54/39
f 92/64/40 89/65/40 60/57/40 55/55/40
f 94/66/41 91/59/41 57/62/41 58/67/41
f 99/68/42 95/69/42 59/70/42 84/71/42
f 90/60/43 93/63/43 54/54/43 56/61/43
f 95/69/44 94/66/44 58/67/44 59/70/44
f 98/72/45 97/73/45 74/74/45 88/58/45
f 83/75/46 72/76/46 73/77/46 84/71/46
f 82/78/47 71/79/47 72/76/47 83/75/47
f 81/80/48 70/81/48 71/79/48 82/78/48
f 80/53/49 68/82/49 70/81/49 81/80/49
f 78/83/50 79/84/50 66/85/50 65/86/50
f 77/87/51 78/83/51 65/86/51 64/88/51
f 76/89/52 77/87/52 64/88/52 63/90/52
f 75/47/53 76/89/53 63/90/53 61/91/53
f 47/50/54 49/92/54 76/89/54 75/47/54
f 49/92/52 50/93/52 77/87/52 76/89/52
f 50/93/55 51/94/55 78/83/55 77/87/55
f 51/94/56 52/95/56 79/84/56 78/83/56
f 54/54/57 80/53/57 81/80/57 56/61/57
f 56/61/48 81/80/48 82/78/48 57/62/48
f 57/62/58 82/78/58 83/75/58 58/67/58
f 58/67/59 83/75/59 84/71/59 59/70/59
f 89/65/60 98/72/60 88/58/60 60/57/60
f 96/96/42 99/68/42 84/71/42 73/77/42
f 69/97/61 87/56/61 88/58/61 74/74/61
f 68/82/62 80/53/62 87/56/62 69/97/62
f 62/98/63 67/99/63 86/51/63 85/48/63
f 61/91/64 62/98/64 85/48/64 75/47/64
f 66/85/65 79/84/65 99/68/65 96/96/65
f 53/52/66 86/51/66 98/72/66 89/65/66
f 86/51/67 67/99/67 97/73/67 98/72/67
f 52/95/68 51/94/68 94/66/68 95/69/68
f 49/92/69 47/50/69 93/63/69 90/60/69
f 79/84/65 52/95/65 95/69/65 99/68/65
f 51/94/70 50/93/70 91/59/70 94/66/70
f 48/49/71 53/52/71 89/65/71 92/64/71
f 47/50/72 48/49/72 92/64/72 93/63/72
f 50/93/38 49/92/38 90/60/38 91/59/38
f 122/100/73 100/101/73 101/102/73 123/103/73
f 123/103/74 101/102/74 103/104/74 124/105/74
f 124/105/75 103/104/75 105/106/75 125/107/75
f 125/107/76 105/106/76 107/108/76 126/109/76
f 126/109/77 107/108/77 109/110/77 127/111/77
f 128/112/78 129/113/78 113/114/78 111/115/78
f 129/113/79 130/116/79 115/117/79 113/114/79
f 130/116/80 131/118/80 117/119/80 115/117/80
f 131/118/81 132/120/81 119/121/81 117/119/81
f 132/120/82 133/122/82 121/123/82 119/121/82
f 144/124/11 104/125/11 108/126/11 122/100/11
f 122/100/83 108/126/83 114/127/83 100/101/83
f 118/128/84 119/121/84 121/123/84 120/129/84
f 116/130/85 117/119/85 119/121/85 118/128/85
f 108/126/86 128/112/86 111/115/86 114/127/86
f 112/131/87 115/117/87 117/119/87 116/130/87
f 105/106/88 116/130/88 118/128/88 107/108/88
f 110/132/89 113/114/89 115/117/89 112/131/89
f 114/127/90 111/115/90 113/114/90 110/132/90
f 104/125/11 145/133/11 128/112/11 108/126/11
f 120/129/91 121/123/91 133/122/91 106/134/91
f 142/135/92 143/136/92 133/122/92 132/120/92
f 141/137/93 142/135/93 132/120/93 131/118/93
f 140/138/94 141/137/94 131/118/94 130/116/94
f 139/139/11 140/138/11 130/116/11 129/113/11
f 145/133/11 139/139/11 129/113/11 128/112/11
f 137/140/95 126/109/95 127/111/95 138/141/95
f 136/142/96 125/107/96 126/109/96 137/140/96
f 135/143/97 124/105/97 125/107/97 136/142/97
f 134/144/11 123/103/11 124/105/11 135/143/11
f 144/124/11 122/100/11 123/103/11 134/144/11
f 107/108/98 118/128/98 120/129/98 109/110/98
f 103/104/99 112/131/99 116/130/99 105/106/99
f 101/102/100 110/132/100 112/131/100 103/104/100
f 100/101/101 114/127/101 110/132/101 101/102/101
f 109/110/102 120/129/102 106/134/102 127/111/102
f 127/111/103 106/134/103 102/145/103 138/141/103
f 106/134/104 133/122/104 143/136/104 102/145/104
f 174/146/105 146/147/105 147/148/105 184/149/105
f 184/149/106 147/148/106 152/150/106 185/151/106
f 179/152/107 186/153/107 154/154/107 153/155/107
f 186/153/108 187/156/108 159/157/108 154/154/108
f 190/158/109 156/159/109 155/160/109 189/161/109
f 192/162/110 153/155/110 154/154/110 191/163/110
f 191/163/111 154/154/111 159/157/111 188/164/111
f 193/165/112 157/166/112 156/159/112 190/158/112
f 198/167/113 183/168/113 158/169/113 194/170/113
f 189/161/114 155/160/114 153/155/114 192/162/114
f 194/170/115 158/169/115 157/166/115 193/165/115
f 197/171/116 187/156/116 173/172/116 196/173/116
f 182/174/117 183/168/117 172/175/117 171/176/117
f 181/177/118 182/174/118 171/176/118 170/178/118
f 180/179/119 181/177/119 170/178/119 169/180/119
f 179/152/120 180/179/120 169/180/120 167/181/120
f 177/182/121 164/183/121 165/184/121 178/185/121
f 176/186/122 163/187/122 164/183/122 177/182/122
f 175/188/123 162/189/123 163/187/123 176/186/123
f 174/146/124 160/190/124 162/189/124 175/188/124
f 146/147/125 174/146/125 175/188/125 148/191/125
f 148/191/123 175/188/123 176/186/123 149/192/123
f 149/192/126 176/186/126 177/182/126 150/193/126
f 150/193/127 177/182/127 178/185/127 151/194/127
f 153/155/128 155/160/128 180/179/128 179/152/128
f 155/160/119 156/159/119 181/177/119 180/179/119
f 156/159/129 157/166/129 182/174/129 181/177/129
f 157/166/130 158/169/130 183/168/130 182/174/130
f 188/164/131 159/157/131 187/156/131 197/171/131
f 195/195/113 172/175/113 183/168/113 198/167/113
f 168/196/132 173/172/132 187/156/132 186/153/132
f 167/181/133 168/196/133 186/153/133 179/152/133
f 161/197/134 184/149/134 185/151/134 166/198/134
f 160/190/135 174/146/135 184/149/135 161/197/135
f 165/184/136 195/195/136 198/167/136 178/185/136
f 152/150/137 188/164/137 197/171/137 185/151/137
f 185/151/138 197/171/138 196/173/138 166/198/138
f 151/194/139 194/170/139 193/165/139 150/193/139
f 148/191/140 189/161/140 192/162/140 146/147/140
f 178/185/136 198/167/136 194/170/136 151/194/136
f 150/193/141 193/165/141 190/158/141 149/192/141
f 147/148/142 191/163/142 188/164/142 152/150/142
f 146/147/143 192/162/143 191/163/143 147/148/143
f 149/192/109 190/158/109 189/161/109 148/191/109
